<?xml version="1.0" encoding="UTF-8"?>
<!DOCTYPE svg PUBLIC "-//W3C//DTD SVG 1.1//EN" "http://www.w3.org/Graphics/SVG/1.1/DTD/svg11.dtd">
<svg xmlns="http://www.w3.org/2000/svg" version="1.1" width="545px" height="55px" style="shape-rendering:geometricPrecision; text-rendering:geometricPrecision; image-rendering:optimizeQuality; fill-rule:evenodd; clip-rule:evenodd" xmlns:xlink="http://www.w3.org/1999/xlink">
<g><path style="opacity:1" fill="#fbfbfb" d="M 114.5,-0.5 C 118.5,-0.5 122.5,-0.5 126.5,-0.5C 133.182,1.26678 138.682,4.93345 143,10.5C 144.707,12.9088 145.54,15.5755 145.5,18.5C 140.821,18.6658 136.155,18.4992 131.5,18C 122.841,8.87698 115.341,9.71031 109,20.5C 106.692,33.1792 111.859,39.3459 124.5,39C 128.128,38.21 130.128,36.0433 130.5,32.5C 127.854,32.8916 125.354,32.8916 123,32.5C 122.501,28.8484 122.335,25.1817 122.5,21.5C 130.5,21.5 138.5,21.5 146.5,21.5C 146.56,22.0431 146.893,22.3764 147.5,22.5C 148.497,15.5316 148.83,8.53157 148.5,1.5C 152.566,0.177959 156.733,0.177959 161,1.5C 161.667,17.8333 161.667,34.1667 161,50.5C 156.733,51.822 152.566,51.822 148.5,50.5C 148.666,42.16 148.5,33.8267 148,25.5C 147.187,27.4357 146.687,29.4357 146.5,31.5C 144.456,42.0457 138.123,48.5457 127.5,51C 117.833,51.6667 108.167,51.6667 98.5,51C 96.5951,49.1847 94.9284,47.1847 93.5,45C 88.1771,44.5006 82.8437,44.334 77.5,44.5C 77.7564,46.7925 77.4231,48.9592 76.5,51C 72.1667,51.6667 67.8333,51.6667 63.5,51C 58.7082,42.58 53.5415,34.4133 48,26.5C 47.5002,35.8274 47.3335,45.1607 47.5,54.5C 47.1667,54.5 46.8333,54.5 46.5,54.5C 40.8912,45.0512 35.0579,35.7178 29,26.5C 28.6667,34.5 28.3333,42.5 28,50.5C 23.6667,51.8333 19.3333,51.8333 15,50.5C 14.1818,34.1223 14.3485,17.789 15.5,1.5C 19.5158,0.23007 23.5158,0.23007 27.5,1.5C 30.1955,5.02962 32.6955,8.69629 35,12.5C 35.203,8.57874 35.703,4.74541 36.5,1C 40.2364,0.39012 43.9031,0.723453 47.5,2C 52.7901,9.41302 57.9568,16.913 63,24.5C 63.2734,22.8988 63.7734,21.3988 64.5,20C 63.4216,13.9807 63.4216,7.81398 64.5,1.5C 68.9168,0.129996 73.2502,0.296663 77.5,2C 82.64,9.10762 88.14,15.941 94,22.5C 96.1345,10.5375 102.968,2.87085 114.5,-0.5 Z M 76.5,21.5 C 78.9195,25.0996 81.5862,28.5996 84.5,32C 81.854,32.4974 79.1873,32.6641 76.5,32.5C 76.5,28.8333 76.5,25.1667 76.5,21.5 Z"/></g>
<g><path style="opacity:1" fill="#fcfcfc" d="M 302.5,33.5 C 302.44,32.9569 302.107,32.6236 301.5,32.5C 300.504,38.4632 300.171,44.4632 300.5,50.5C 296.366,51.4849 292.032,51.8182 287.5,51.5C 287.824,36.5884 287.491,21.755 286.5,7C 287.167,5 287.833,3 288.5,1C 297.203,0.298268 305.87,0.631602 314.5,2C 322.515,4.5013 326.848,10.0013 327.5,18.5C 326.916,25.8288 323.249,30.9955 316.5,34C 317.305,35.9717 318.639,37.4717 320.5,38.5C 329.943,26.4621 339.276,14.2954 348.5,2C 352.382,0.641769 356.715,0.475102 361.5,1.5C 361.334,7.84209 361.5,14.1754 362,20.5C 364.4,10.4334 370.566,3.9334 380.5,1C 394.367,-1.97548 404.867,2.52452 412,14.5C 420.898,0.822006 433.064,-3.01133 448.5,3C 455.645,7.15749 460.145,13.3242 462,21.5C 462.5,14.8417 462.666,8.17499 462.5,1.5C 466.514,1.33449 470.514,1.50115 474.5,2C 480,7.83333 485.5,13.6667 491,19.5C 491.499,13.5092 491.666,7.50924 491.5,1.5C 495.833,1.5 500.167,1.5 504.5,1.5C 504.833,18.8461 504.5,36.1795 503.5,53.5C 494.569,44.0678 485.402,34.7344 476,25.5C 475.818,34.0783 475.318,42.5783 474.5,51C 470.577,51.7927 466.744,51.626 463,50.5C 462.667,43.8333 462.333,37.1667 462,30.5C 455.97,48.935 443.47,55.435 424.5,50C 419.381,47.2149 415.214,43.3816 412,38.5C 401.845,52.0799 389.012,55.2466 373.5,48C 367.292,43.7557 363.458,37.9224 362,30.5C 361.667,37.1667 361.333,43.8333 361,50.5C 357.256,51.626 353.423,51.7927 349.5,51C 348.577,48.9592 348.244,46.7925 348.5,44.5C 342.824,44.3339 337.157,44.5006 331.5,45C 330.167,47 328.833,49 327.5,51C 322.5,51.6667 317.5,51.6667 312.5,51C 308.511,45.5185 305.178,39.6852 302.5,33.5 Z M 383.5,12.5 C 389.576,11.1611 394.242,12.9944 397.5,18C 401.821,18.499 406.154,18.6657 410.5,18.5C 410.5,19.5 410.5,20.5 410.5,21.5C 403.492,21.3337 396.492,21.5004 389.5,22C 388.378,25.4085 388.211,28.9085 389,32.5C 392.076,33.2883 395.242,33.7883 398.5,34C 394.782,39.1022 389.782,40.7689 383.5,39C 371.605,30.1779 371.605,21.3446 383.5,12.5 Z M 431.5,12.5 C 444.069,11.9054 449.569,17.9054 448,30.5C 445.041,38.2296 439.541,41.0629 431.5,39C 423.186,33.5949 421.352,26.4282 426,17.5C 427.73,15.5981 429.563,13.9314 431.5,12.5 Z M 301.5,13.5 C 307.395,12.0347 311.395,14.0347 313.5,19.5C 311.178,24.6614 307.178,26.6614 301.5,25.5C 301.5,21.5 301.5,17.5 301.5,13.5 Z M 347.5,22.5 C 348.641,25.6399 348.808,28.9733 348,32.5C 346.284,32.4106 344.451,32.7439 342.5,33.5C 341.417,32.635 341.251,31.635 342,30.5C 344.054,27.9528 345.887,25.2861 347.5,22.5 Z"/></g>
<g><path style="opacity:1" fill="#fbfbfb" d="M 544.5,31.5 C 544.5,35.1667 544.5,38.8333 544.5,42.5C 539.573,50.7522 532.24,53.9189 522.5,52C 512.336,51.1654 507.003,45.6654 506.5,35.5C 506.887,34.2801 507.72,33.6135 509,33.5C 512.952,33.9126 516.619,33.9126 520,33.5C 520.618,38.8033 523.452,40.9699 528.5,40C 531.08,37.8797 531.08,35.713 528.5,33.5C 521.62,31.3821 515.453,28.0488 510,23.5C 505.573,9.40644 510.906,1.73977 526,0.5C 532.445,0.808774 537.945,3.14211 542.5,7.5C 539.149,10.8482 535.482,13.8482 531.5,16.5C 530.155,15.6533 529.155,14.4866 528.5,13C 523.9,11.4167 522.066,12.9167 523,17.5C 527.275,20.0415 531.775,22.2082 536.5,24C 539.692,26.0282 542.359,28.5282 544.5,31.5 Z"/></g>
<g><path style="opacity:1" fill="#fcfcfc" d="M -0.5,51.5 C -0.5,34.8333 -0.5,18.1667 -0.5,1.5C 3.66737,0.196845 7.83403,0.196845 12,1.5C 12.4999,18.1633 12.6666,34.83 12.5,51.5C 8.16667,51.5 3.83333,51.5 -0.5,51.5 Z"/></g>
<g><path style="opacity:1" fill="#fcfcfc" d="M 165.5,0.5 C 168.978,0.184244 172.312,0.684244 175.5,2C 180.884,7.92884 186.384,13.7622 192,19.5C 192.333,13.5 192.667,7.5 193,1.5C 197,0.166667 201,0.166667 205,1.5C 205.833,18.8429 205.666,36.1763 204.5,53.5C 195.514,44.0142 186.348,34.6808 177,25.5C 176.667,33.8333 176.333,42.1667 176,50.5C 173.925,51.1344 171.759,51.4677 169.5,51.5C 166.963,51.6033 164.629,51.1033 162.5,50C 163.354,35.3409 163.354,20.6742 162.5,6C 162.895,3.75162 163.895,1.91828 165.5,0.5 Z"/></g>
<g><path style="opacity:1" fill="#fafafa" d="M 208.5,0.5 C 217.173,0.33358 225.84,0.500246 234.5,1C 235.464,5.06588 235.797,9.23254 235.5,13.5C 230.5,13.5 225.5,13.5 220.5,13.5C 220.5,15.5 220.5,17.5 220.5,19.5C 224.226,19.1774 227.893,19.5108 231.5,20.5C 230.362,23.913 229.029,27.2464 227.5,30.5C 225.257,31.4742 222.924,31.8076 220.5,31.5C 220.5,33.8333 220.5,36.1667 220.5,38.5C 225.5,38.5 230.5,38.5 235.5,38.5C 235.5,42.8333 235.5,47.1667 235.5,51.5C 226.249,51.8178 217.083,51.4845 208,50.5C 207.182,33.7594 207.349,17.0927 208.5,0.5 Z"/></g>
<g><path style="opacity:1" fill="#fafafa" d="M 248.5,0.5 C 278.421,-2.42469 289.921,10.5753 283,39.5C 278.864,46.4899 272.698,50.3232 264.5,51C 258.916,51.8056 253.416,51.6389 248,50.5C 247.333,46.8333 247.333,43.1667 248,39.5C 254.526,38.939 261.026,38.1057 267.5,37C 271.373,32.2147 272.54,26.7147 271,20.5C 270.208,18.4127 269.041,16.5793 267.5,15C 260.998,13.9394 254.498,13.1061 248,12.5C 247.238,8.41258 247.404,4.41258 248.5,0.5 Z"/></g>
<g><path style="opacity:0.008" fill="#cbcbcb" d="M 148.5,1.5 C 148.83,8.53157 148.497,15.5316 147.5,22.5C 146.893,22.3764 146.56,22.0431 146.5,21.5C 147.167,14.8333 147.833,8.16667 148.5,1.5 Z"/></g>
<g><path style="opacity:0.007" fill="#c9c9c9" d="M 148.5,50.5 C 147.833,44.1667 147.167,37.8333 146.5,31.5C 146.687,29.4357 147.187,27.4357 148,25.5C 148.5,33.8267 148.666,42.16 148.5,50.5 Z"/></g>
<g><path style="opacity:0.079" fill="#b9b9b9" d="M 302.5,33.5 C 301.833,39.1667 301.167,44.8333 300.5,50.5C 300.171,44.4632 300.504,38.4632 301.5,32.5C 302.107,32.6236 302.44,32.9569 302.5,33.5 Z"/></g>
</svg>
